<svg fill="none" xmlns="http://www.w3.org/2000/svg" viewBox="0 0 37 50"><path d="M35.364 15.585A17.09 17.09 0 0018.509 1.5a17.09 17.09 0 00-16.86 14.085c-.45 3.26.115 6.58 1.62 9.505a74.636 74.636 0 007.93 12.77c1.905 2.595 3.95 5.07 6.015 7.515.305.385.765.615 1.255.625.49-.01.95-.24 1.25-.625 2.07-2.505 4.115-4.935 6.02-7.515a74.639 74.639 0 007.93-12.77 15.965 15.965 0 001.695-9.5v-.005z" fill="#B74134"/><path fill-rule="evenodd" clip-rule="evenodd" d="M18.159 47h.1a2.97 2.97 0 002.285-1.1 152.282 152.282 0 006.04-7.55 76.02 76.02 0 008.03-12.985 17.026 17.026 0 001.71-10.225A18.38 18.38 0 0018.259 0 18.38 18.38 0 00.174 15.14a17.065 17.065 0 001.71 10.225 76.266 76.266 0 008.03 12.985 158.81 158.81 0 006.04 7.565A2.97 2.97 0 0018.159 47zm.415-2.77a.408.408 0 01-.315.16l-.02-.01a.418.418 0 01-.265-.165c-1.945-2.325-4.015-4.83-5.935-7.425a73.972 73.972 0 01-7.76-12.485 14.662 14.662 0 01-1.51-8.74 15.76 15.76 0 0131.01.015c.41 3-.117 6.052-1.51 8.74a73.97 73.97 0 01-7.76 12.48c-1.92 2.6-3.985 5.105-5.935 7.43z" fill="#fff"/><path fill-rule="evenodd" clip-rule="evenodd" d="M18.221 16.81c0 .207.169.375.377.375h5.525c.29 0 .471.314.325.565l-6.46 11.063c-.194.331-.703.194-.703-.19v-7.427a.376.376 0 00-.376-.376h-5.532a.376.376 0 01-.325-.564l6.467-11.069c.194-.331.702-.194.702.19v7.433z" fill="#fff"/></svg>